<?xml version="1.0" encoding="utf-8"?>
<!-- Svg Vector Icons : http://www.onlinewebfonts.com/icon -->
<!DOCTYPE svg PUBLIC "-//W3C//DTD SVG 1.1//EN" "http://www.w3.org/Graphics/SVG/1.1/DTD/svg11.dtd">
<svg version="1.1" xmlns="http://www.w3.org/2000/svg" xmlns:xlink="http://www.w3.org/1999/xlink" x="0px" y="0px" viewBox="0 0 1000 1000" enable-background="new 0 0 1000 1000" xml:space="preserve" fill="#FFE4DD">
<metadata> Svg Vector Icons : http://www.onlinewebfonts.com/icon </metadata>
<g><path d="M760,621.3H161.2H760z"/><path d="M760,641.7H161.2c-10.9,0-20.4-9.5-20.4-20.4c0-10.9,9.5-20.4,20.4-20.4H760c10.9,0,20.4,9.5,20.4,20.4C780.4,632.1,770.9,641.7,760,641.7z"/><path d="M969.6,621.3h-73.5H969.6z"/><path d="M969.6,641.7h-73.5c-10.9,0-20.4-9.5-20.4-20.4c0-10.9,9.5-20.4,20.4-20.4h73.5c10.9,0,20.4,9.5,20.4,20.4C990,632.1,980.5,641.7,969.6,641.7z"/><path d="M826.7,708.4L826.7,708.4H824c-23.1-1.4-43.5-10.9-59.9-27.2c-16.3-16.3-24.5-38.1-23.1-61.2c1.4-46.3,39.5-83,85.7-83h2.7c23.1,1.4,43.5,10.9,59.9,27.2c16.3,16.3,24.5,38.1,23.1,61.2C909.7,671.6,873,708.4,826.7,708.4z M825.3,577.7c-24.5,0-44.9,19.1-44.9,43.5c0,12.2,4.1,23.1,12.2,32.7c8.2,8.2,19.1,13.6,31.3,13.6h1.4c24.5,0,43.5-19.1,44.9-43.5c0-12.2-4.1-23.1-12.2-32.7c-8.2-8.2-19.1-13.6-31.3-13.6H825.3z"/><path d="M95.9,708.4L95.9,708.4h-2.7C70,707,49.6,697.5,33.3,681.1C17,664.8,8.8,643,10.1,619.9c1.4-46.3,39.5-83,85.7-83h2.7c23.1,1.4,43.5,10.9,59.9,27.2c16.3,16.3,24.5,38.1,23.1,61.2C180.3,671.6,142.2,708.4,95.9,708.4z M95.9,577.7c-24.5,0-44.9,19.1-44.9,43.5c0,12.2,4.1,23.1,12.2,32.7c8.2,8.2,19.1,13.6,31.3,13.6h1.4c24.5,0,43.5-19.1,44.9-43.5c0-12.2-4.1-23.1-12.2-32.7c-8.2-8.2-19.1-13.6-31.3-13.6H95.9z"/><path d="M789.9,558.7l-145.6-181L789.9,558.7z"/><path d="M789.9,579.1c-5.4,0-12.2-2.7-16.3-8.2L628,389.9c-6.8-8.2-5.4-21.8,2.7-28.6c8.2-6.8,21.8-5.4,28.6,2.7l145.6,181c6.8,8.2,5.4,21.8-2.7,28.6C799.5,577.7,794,579.1,789.9,579.1z"/><path d="M679.7,311l-104.8,87.1L679.7,311z"/><path d="M574.9,418.5c-5.4,0-12.2-2.7-16.3-6.8c-6.8-8.2-5.4-21.8,2.7-28.6L666.1,296c8.2-6.8,21.8-5.4,28.6,2.7c6.8,8.2,5.4,21.8-2.7,28.6l-104.8,87.1C584.5,417.1,580.4,418.5,574.9,418.5z"/><path d="M689.2,455.2L560,621.3L689.2,455.2z"/><path d="M560,641.7c-4.1,0-8.2-1.4-12.2-4.1c-9.5-6.8-10.9-20.4-4.1-28.6l129.3-166c6.8-9.5,20.4-10.9,28.6-4.1c9.5,6.8,10.9,19.1,4.1,28.6l-129.3,166C572.2,638.9,566.8,641.7,560,641.7z"/><path d="M430.7,566.8H282.3c-25.9,0-46.3-8.2-61.2-21.8c-28.6-28.6-27.2-77.6-27.2-121.1c0-27.2,1.4-59.9-8.2-69.4c-1.4-1.4-2.7-2.7-9.5-2.7c-10.9,0-20.4-9.5-20.4-20.4c0-10.9,9.5-20.4,20.4-20.4c16.3,0,28.6,5.4,38.1,15c20.4,21.8,20.4,58.5,19.1,98c0,35.4-1.4,74.8,15,91.2c6.8,6.8,17.7,10.9,31.3,10.9h148.3c10.9,0,20.4,9.5,20.4,20.4C448.4,557.3,441.6,566.8,430.7,566.8z"/><path d="M46.9,475.6c0,8.2,8.2,13.6,17.7,13.6h59.9c9.5,0,17.7-6.8,17.7-13.6V462c0-8.2-8.2-13.6-17.7-13.6H64.6c-9.5,0-17.7,6.8-17.7,13.6V475.6z"/><path d="M124.5,509.7H64.6c-20.4,0-38.1-15-38.1-34V462c0-19.1,16.3-34,38.1-34h59.9c20.4,0,38.1,15,38.1,34v13.6C161.2,494.7,144.9,509.7,124.5,509.7z M67.3,468.8h53.1v-1.4L67.3,468.8L67.3,468.8z"/></g>
</svg>